<?xml version="1.0" encoding="iso-8859-1"?>
<!-- Uploaded to: SVG Repo, www.svgrepo.com, Generator: SVG Repo Mixer Tools -->
<svg version="1.1" id="Layer_1" xmlns="http://www.w3.org/2000/svg" xmlns:xlink="http://www.w3.org/1999/xlink" 
	 viewBox="0 0 512 512" xml:space="preserve">
<rect y="40.257" style="fill:#FFFFFF;" width="512" height="431.489"/>
<polygon style="fill:#3E3D43;" points="208.389,297.128 240.635,297.128 240.635,471.747 271.971,471.747 271.971,297.128 
	304.206,297.128 304.206,40.253 208.389,40.253 "/>
<rect x="255.937" y="40.257" style="fill:#FFFFFF;" width="256.063" height="431.489"/>
<polygon style="fill:#2B292C;" points="304.204,40.257 304.204,297.124 271.971,297.124 271.971,471.747 255.937,471.747 
	255.937,40.257 "/>
<polygon style="fill:#3E3D43;" points="62.157,297.128 94.403,297.128 94.403,471.747 125.739,471.747 125.739,297.128 
	157.974,297.128 157.974,40.253 62.157,40.253 "/>
<polygon style="fill:#2B292C;" points="157.972,40.257 157.972,297.124 125.739,297.124 125.739,471.747 109.705,471.747 
	109.705,40.257 "/>
<polygon style="fill:#3E3D43;" points="353.229,297.128 385.475,297.128 385.475,471.747 416.81,471.747 416.81,297.128 
	449.046,297.128 449.046,40.253 353.229,40.253 "/>
<polygon style="fill:#2B292C;" points="449.044,40.257 449.044,297.124 416.81,297.124 416.81,471.747 400.777,471.747 
	400.777,40.257 "/>
</svg>